# xmcd
#
# Track frame offsets:
#	150
#	11467
#	31430
#	48184
#	64041
#	84335
#	104071
#	121669
#	139483
#	156550
#	175426
#	194795
#	213635
#	229684
#	270046
#	290360
#	306595
#	327725
#
# Disc length: 4636 seconds
#
# Revision: 0
# Processed by: cddbd v1.4PL0 Copyright (c) Steve Scherf et al.
# Submitted via: dBpowerAMP V4.0
#
DISCID=11121a12
DTITLE=TLC - 3D
DYEAR=1900
DGENRE=R&B
TTITLE0=3D (Intro)
TTITLE1=Quickie
TTITLE2=Girl Talk
TTITLE3=Turntable
TTITLE4=In Your Arms Tonight
TTITLE5=Over Me
TTITLE6=Hands Up
TTITLE7=Damaged
TTITLE8=Dirty Dirty
TTITLE9=So So Dumb
TTITLE10=Good Love
TTITLE11=Hey Hey Hey Hey
TTITLE12=Give It To Me While It's Hot
TTITLE13=Girl Talk (Spyder's Tribal Lovin' Club Mix) (Bonus)
TTITLE14=Something Wicked This Way Comes (Feat Outkast) (Bonus)
TTITLE15=No Scrubs (Bonus)
TTITLE16=Waterfalls (Bonus)
TTITLE17=Creep (Bonus)
EXTD=
EXTT0=
EXTT1=
EXTT2=
EXTT3=
EXTT4=
EXTT5=
EXTT6=
EXTT7=
EXTT8=
EXTT9=
EXTT10=
EXTT11=
EXTT12=
EXTT13=
EXTT14=
EXTT15=
EXTT16=
EXTT17=
PLAYORDER=
